<svg width="26" height="27" viewBox="0 0 26 27" fill="none" xmlns="http://www.w3.org/2000/svg">
    <path d="M9.83528 23.4508C10.4524 23.2657 10.8027 22.6153 10.6175 21.9981C10.4324 21.3809 9.78196 21.0307 9.1648 21.2159L9.83528 23.4508ZM1.61633 17.7015C0.991238 17.5452 0.357815 17.9253 0.201541 18.5504C0.0452675 19.1755 0.425322 19.8089 1.05042 19.9652L1.61633 17.7015ZM16.5 25.8333C16.5 26.4777 17.0224 27 17.6667 27C18.311 27 18.8334 26.4777 18.8334 25.8333H16.5ZM17.6667 21.3183L16.5036 21.2268C16.5012 21.2573 16.5 21.2878 16.5 21.3183H17.6667ZM16.57 18.2733L16.4408 17.1139C15.9984 17.1632 15.6226 17.4599 15.4721 17.8788C15.3216 18.2977 15.4226 18.7658 15.7324 19.0854L16.57 18.2733ZM24.0834 10.1067H25.25V10.1065L24.0834 10.1067ZM22.3334 5.73167L21.2403 5.32376C21.0842 5.74205 21.1805 6.21275 21.4884 6.53611L22.3334 5.73167ZM22.2284 1.33334L23.3007 0.87373C23.1641 0.554935 22.8927 0.313465 22.5601 0.214835L22.2284 1.33334ZM17.6667 3.06L17.3615 4.18605C17.6875 4.27439 18.0358 4.21714 18.3163 4.02909L17.6667 3.06ZM9.50004 3.06L8.85044 4.02909C9.13098 4.21714 9.47925 4.27439 9.80522 4.18605L9.50004 3.06ZM4.93837 1.33334L4.60662 0.214835C4.27409 0.313465 4.00269 0.554935 3.86605 0.87373L4.93837 1.33334ZM4.83337 5.73167L5.67833 6.53613C5.9862 6.21277 6.08251 5.74206 5.92641 5.32376L4.83337 5.73167ZM3.08337 10.1417H4.25006L4.25003 10.1355L3.08337 10.1417ZM10.5967 18.3083L11.4351 19.1197C11.7427 18.8018 11.8441 18.3374 11.6969 17.9202C11.5498 17.5031 11.1794 17.2051 10.7405 17.1506L10.5967 18.3083ZM9.50004 21.3183H10.6667C10.6667 21.291 10.6657 21.2637 10.6638 21.2365L9.50004 21.3183ZM8.33337 25.8333C8.33337 26.4777 8.85571 27 9.50004 27C10.1444 27 10.6667 26.4777 10.6667 25.8333H8.33337ZM9.1648 21.2159C7.83912 21.6136 6.96005 21.6119 6.35705 21.4708C5.76908 21.3332 5.33338 21.0376 4.92917 20.6334C4.7205 20.4247 4.52473 20.1916 4.31642 19.9307C4.12251 19.6878 3.88692 19.3804 3.6616 19.1159C3.20578 18.5808 2.56818 17.9395 1.61633 17.7015L1.05042 19.9652C1.26523 20.0189 1.50264 20.1797 1.88536 20.6289C2.07931 20.8566 2.25388 21.087 2.4929 21.3864C2.71754 21.6678 2.9775 21.9815 3.27925 22.2833C3.89587 22.8999 4.69975 23.4793 5.82532 23.7427C6.93587 24.0027 8.24429 23.9281 9.83528 23.4508L9.1648 21.2159ZM18.8334 25.8333V21.3183H16.5V25.8333H18.8334ZM18.8298 21.4098C18.9446 19.9505 18.4266 18.5123 17.4077 17.4613L15.7324 19.0854C16.285 19.6554 16.5659 20.4354 16.5036 21.2268L18.8298 21.4098ZM16.6993 19.4328C18.5965 19.2213 20.7608 18.7401 22.4513 17.3186C24.1985 15.8494 25.25 13.544 25.25 10.1067H22.9167C22.9167 13.0394 22.0432 14.6131 20.9496 15.5327C19.7993 16.4999 18.2069 16.917 16.4408 17.1139L16.6993 19.4328ZM25.25 10.1065C25.2497 8.17816 24.508 6.32382 23.1784 4.92723L21.4884 6.53611C22.4051 7.49898 22.9165 8.77744 22.9167 10.1069L25.25 10.1065ZM23.4264 6.13958C24.0631 4.43343 24.0181 2.54756 23.3007 0.87373L21.1561 1.79294C21.6371 2.91526 21.6673 4.17976 21.2403 5.32376L23.4264 6.13958ZM22.2284 1.33334C22.5601 0.214835 22.559 0.214501 22.5579 0.214166C22.5575 0.214053 22.5563 0.213718 22.5556 0.213492C22.554 0.213041 22.5525 0.212587 22.5509 0.21213C22.5477 0.211215 22.5444 0.210289 22.5411 0.209351C22.5344 0.207476 22.5273 0.205557 22.5198 0.203608C22.5049 0.199709 22.4886 0.195689 22.4708 0.191644C22.4352 0.183549 22.3939 0.175371 22.3467 0.167854C22.2523 0.1528 22.1355 0.140519 21.9956 0.136669C21.7152 0.128953 21.3479 0.155247 20.8891 0.257108C19.9735 0.460364 18.7 0.962847 17.0171 2.09092L18.3163 4.02909C19.8185 3.02216 20.8257 2.66131 21.3948 2.53498C21.6782 2.47205 21.8541 2.46699 21.9314 2.46912C21.9704 2.47019 21.9859 2.47313 21.9793 2.47207C21.976 2.47155 21.9673 2.47006 21.9535 2.4669C21.9465 2.46532 21.9383 2.46334 21.9288 2.46085C21.9241 2.45961 21.919 2.45825 21.9137 2.45675C21.911 2.456 21.9082 2.45521 21.9054 2.4544C21.9039 2.45399 21.9025 2.45357 21.9011 2.45314C21.9003 2.45293 21.8992 2.45261 21.8988 2.4525C21.8977 2.45217 21.8966 2.45184 22.2284 1.33334ZM17.9719 1.93396C15.0981 1.15509 12.0687 1.15509 9.19486 1.93396L9.80522 4.18605C12.2794 3.5155 14.8874 3.5155 17.3615 4.18605L17.9719 1.93396ZM10.1496 2.09092C8.46678 0.962847 7.19324 0.460364 6.27768 0.257108C5.81886 0.155247 5.4515 0.128953 5.17115 0.136669C5.03128 0.140519 4.9144 0.1528 4.82001 0.167854C4.77287 0.175371 4.73154 0.183549 4.69594 0.191644C4.67815 0.195689 4.66181 0.199709 4.64692 0.203608C4.63947 0.205557 4.63239 0.207475 4.62568 0.209351C4.62232 0.210288 4.61905 0.211215 4.61587 0.21213C4.61428 0.212587 4.61272 0.213041 4.61118 0.213492C4.6104 0.213718 4.60926 0.214053 4.60888 0.214166C4.60774 0.214501 4.60662 0.214835 4.93837 1.33334C5.27013 2.45184 5.26902 2.45217 5.2679 2.4525C5.26754 2.45261 5.26643 2.45293 5.2657 2.45314C5.26424 2.45357 5.2628 2.45399 5.26138 2.4544C5.25854 2.45521 5.25578 2.456 5.25309 2.45675C5.24772 2.45825 5.24267 2.45961 5.23792 2.46085C5.22844 2.46334 5.22022 2.46532 5.21329 2.4669C5.19941 2.47006 5.19076 2.47155 5.18749 2.47207C5.18082 2.47313 5.19638 2.47019 5.23534 2.46912C5.31264 2.46699 5.48851 2.47205 5.77198 2.53498C6.34101 2.66131 7.3483 3.02216 8.85044 4.02909L10.1496 2.09092ZM3.86605 0.87373C3.14863 2.54756 3.10361 4.43343 3.74034 6.13958L5.92641 5.32376C5.49947 4.17976 5.52966 2.91526 6.0107 1.79294L3.86605 0.87373ZM3.98842 4.92721C2.6489 6.33416 1.9064 8.20527 1.91672 10.1479L4.25003 10.1355C4.24291 8.79615 4.75482 7.50614 5.67833 6.53613L3.98842 4.92721ZM1.91671 10.1417C1.91671 13.5594 2.97051 15.8513 4.71545 17.3186C6.40187 18.7366 8.56151 19.2312 10.4529 19.4661L10.7405 17.1506C8.96857 16.9305 7.37155 16.5034 6.21713 15.5327C5.12123 14.6112 4.25004 13.0473 4.25004 10.1417H1.91671ZM9.75834 17.497C8.75171 18.5372 8.23469 19.9562 8.33625 21.4002L10.6638 21.2365C10.6088 20.4534 10.8892 19.6838 11.4351 19.1197L9.75834 17.497ZM8.33337 21.3183V25.8333H10.6667V21.3183H8.33337Z" fill="white"/>
</svg>
